<?xml version="1.0" encoding="UTF-8"?>
<!DOCTYPE svg PUBLIC "-//W3C//DTD SVG 1.1//EN" "http://www.w3.org/Graphics/SVG/1.1/DTD/svg11.dtd">
<!-- Creator: CorelDRAW 2019 (64 Bit) -->
<svg xmlns="http://www.w3.org/2000/svg" xml:space="preserve" width="55mm" height="8.1mm" version="1.1" style="shape-rendering:geometricPrecision; text-rendering:geometricPrecision; image-rendering:optimizeQuality; fill-rule:evenodd; clip-rule:evenodd"
viewBox="0 0 5500 810"
 xmlns:xlink="http://www.w3.org/1999/xlink">
 <defs>
  <style type="text/css">
   <![CDATA[
    .fil0 {fill:#FF872C}
    .fil1 {fill:#FEFEFE;fill-rule:nonzero}
   ]]>
  </style>
 </defs>
 <g id="Camada_x0020_1">
  <metadata id="CorelCorpID_0Corel-Layer"/>
  <path class="fil0" d="M683.53 266.79c2.99,3.97 5.56,8.26 7.66,12.81 123.75,31.24 214.85,134.62 214.85,257 0,147.04 -131.51,266.68 -293.15,266.68 -84.39,0 -160.55,-32.62 -214.08,-84.71l-203.22 0c-43.73,0 -79.32,-32.38 -79.32,-72.16 0,-22.86 11.75,-43.24 30.03,-56.48 -18.28,-13.23 -30.03,-33.62 -30.03,-56.47 0,-22.85 11.75,-43.24 30.03,-56.47 -18.28,-13.23 -30.03,-33.62 -30.03,-56.47 0,-22.85 11.75,-43.25 30.03,-56.47 -18.28,-13.24 -30.03,-33.63 -30.03,-56.48 0,-39.79 35.59,-72.16 79.32,-72.16l44.97 0c-8.78,-11.61 -13.93,-25.65 -13.93,-40.78 0,-15.13 5.15,-29.18 13.93,-40.79l-138.08 0c-43.74,0 -79.33,-32.37 -79.33,-72.16 0,-39.78 35.59,-72.16 79.33,-72.16l422.47 0c43.73,0 79.32,32.38 79.32,72.16 0,15.13 -5.16,29.18 -13.94,40.79l138.09 0c43.74,0 79.32,32.37 79.32,72.16 0,39.79 -35.58,72.16 -79.32,72.16l-44.89 0zm89.73 -72.16c0,-22.49 -20.11,-40.79 -44.84,-40.79l-422.47 0c-24.72,0 -44.83,18.3 -44.83,40.79 0,22.49 20.11,40.78 44.83,40.78l312.11 0 110.36 0c24.73,0 44.84,-18.29 44.84,-40.78zm-715.62 -112.95c0,22.49 20.11,40.79 44.84,40.79l422.47 0c24.72,0 44.83,-18.3 44.83,-40.79 0,-22.48 -20.11,-40.78 -44.83,-40.78l-422.47 0c-24.73,0 -44.84,18.3 -44.84,40.78zm560.42 185.11l-422.47 0c-24.72,0 -44.83,18.29 -44.83,40.78 0,22.49 20.11,40.79 44.83,40.79l209.86 0c53.1,-48.43 126.49,-78.43 207.44,-78.43 8.33,0 16.58,0.33 24.74,0.96 -5.97,-2.63 -12.62,-4.1 -19.57,-4.1zm-242.07 112.94l-180.4 0c-24.72,0 -44.83,18.3 -44.83,40.79 0,22.49 20.11,40.78 44.83,40.78l136.07 0c9.62,-29.65 24.75,-57.17 44.33,-81.57zm-52.24 112.95l-128.16 0c-24.72,0 -44.83,18.29 -44.83,40.78 0,22.49 20.11,40.79 44.83,40.79l127.09 0c-1.92,-12.31 -2.93,-24.87 -2.93,-37.65 0,-14.96 1.38,-29.63 4,-43.92zm-172.99 153.73c0,22.49 20.11,40.78 44.83,40.78l175.51 0c-18.54,-24.55 -32.68,-52.06 -41.37,-81.57l-134.14 0c-24.72,0 -44.83,18.3 -44.83,40.79zm203.48 -109.81c0,129.75 116.03,235.3 258.65,235.3 142.62,0 258.66,-105.55 258.66,-235.3 0,-129.74 -116.04,-235.3 -258.66,-235.3 -142.62,0 -258.65,105.56 -258.65,235.3zm214.67 -53.62c0,19.06 19.69,34.57 43.9,34.57 46.22,0 83.81,31.79 83.81,70.88 0,33.26 -27.24,61.24 -63.85,68.83l0 7.84c0,10.02 -8.94,18.15 -19.96,18.15 -11.02,0 -19.96,-8.13 -19.96,-18.15l0 -7.84c-36.61,-7.59 -63.85,-35.57 -63.85,-68.83 0,-10.03 8.93,-18.16 19.95,-18.16 11.02,0 19.96,8.13 19.96,18.16 0,19.06 19.69,34.57 43.9,34.57 24.21,0 43.9,-15.51 43.9,-34.57 0,-19.07 -19.69,-34.57 -43.9,-34.57 -46.22,0 -83.81,-31.8 -83.81,-70.88 0,-33.27 27.24,-61.24 63.85,-68.83l0 -9.44c0,-10.02 8.94,-18.15 19.96,-18.15 11.02,0 19.96,8.13 19.96,18.15l0 9.44c36.61,7.59 63.85,35.56 63.85,68.83 0,10.03 -8.93,18.16 -19.95,18.16 -11.02,0 -19.96,-8.13 -19.96,-18.16 0,-19.06 -19.69,-34.57 -43.9,-34.57 -24.21,0 -43.9,15.51 -43.9,34.57z"/>
  <path class="fil0" d="M691.19 279.6l-6.01 2.77 1.33 2.87 3.06 0.77 1.62 -6.41zm-7.66 -12.81l0 -6.62 -13.25 0 7.96 10.59 5.29 -3.97zm-284.72 451.78l4.61 -4.75 -1.92 -1.87 -2.69 0 0 6.62zm-252.51 -128.64l3.88 5.36 7.4 -5.36 -7.4 -5.35 -3.88 5.35zm0 -112.94l3.88 5.36 7.4 -5.36 -7.4 -5.36 -3.88 5.36zm0 -112.94l3.88 5.35 7.4 -5.35 -7.4 -5.36 -3.88 5.36zm94.26 -128.64l0 6.62 13.3 0 -8.02 -10.61 -5.28 3.99zm0 -81.57l5.28 3.99 8.02 -10.6 -13.3 0 0 6.61zm349.77 -31.37l-5.27 -3.99 -8.02 10.6 13.29 0 0 -6.61zm-184.88 225.89l0 6.61 2.57 0 1.89 -1.72 -4.46 -4.89zm232.18 -77.47l-0.51 6.59 3.17 -12.65 -2.66 6.06zm-261.64 108.84l5.16 4.14 8.62 -10.75 -13.78 0 0 6.61zm-44.33 81.57l0 6.62 4.81 0 1.49 -4.58 -6.3 -2.04zm-7.91 31.38l6.5 1.19 1.43 -7.81 -7.93 0 0 6.62zm-1.07 81.57l0 6.61 7.73 0 -1.19 -7.63 -6.54 1.02zm48.42 112.94l0 6.62 13.28 0 -8 -10.6 -5.28 3.98zm-41.37 -81.57l6.34 -1.87 -1.4 -4.74 -4.94 0 0 6.61zm303.04 51.64l-1.35 -6.48 -5.27 1.09 0 5.39 6.62 0zm-39.92 0l6.62 0 0 -5.39 -5.27 -1.09 -1.35 6.48zm0 -243.11l1.35 6.48 5.27 -1.09 0 -5.39 -6.62 0zm39.92 0l-6.62 0 0 5.39 5.27 1.09 1.35 -6.48zm64.43 -137.32c-2.3,-4.98 -5.11,-9.67 -8.39,-14.02l-10.57 7.95c2.72,3.61 5.05,7.49 6.94,11.61l12.02 -5.54zm215.45 259.77c0,-125.87 -93.63,-231.55 -219.84,-263.41l-3.24 12.82c121.28,30.62 209.85,131.7 209.85,250.59l13.23 0zm-299.76 273.29c164.69,0 299.76,-122.02 299.76,-273.29l-13.23 0c0,142.82 -127.94,260.06 -286.53,260.06l0 13.23zm-218.69 -86.59c54.78,53.31 132.59,86.59 218.69,86.59l0 -13.23c-82.68,0 -157.18,-31.96 -209.47,-82.84l-9.22 9.48zm-198.61 1.88l203.22 0 0 -13.23 -203.22 0 0 13.23zm-85.93 -78.77c0,44.01 39.14,78.77 85.93,78.77l0 -13.23c-40.68,0 -72.7,-29.98 -72.7,-65.54l-13.23 0zm32.76 -61.83c-19.78,14.32 -32.76,36.61 -32.76,61.83l13.23 0c0,-20.49 10.52,-38.98 27.29,-51.12l-7.76 -10.71zm-32.76 -51.12c0,25.22 12.98,47.51 32.76,61.83l7.76 -10.71c-16.77,-12.14 -27.29,-30.64 -27.29,-51.12l-13.23 0zm32.76 -61.83c-19.78,14.32 -32.76,36.61 -32.76,61.83l13.23 0c0,-20.48 10.52,-38.97 27.29,-51.11l-7.76 -10.72zm-32.76 -51.11c0,25.22 12.98,47.51 32.76,61.83l7.76 -10.72c-16.77,-12.14 -27.29,-30.63 -27.29,-51.11l-13.23 0zm32.76 -61.83c-19.78,14.32 -32.76,36.61 -32.76,61.83l13.23 0c0,-20.48 10.52,-38.98 27.29,-51.12l-7.76 -10.71zm-32.76 -51.12c0,25.22 12.98,47.51 32.76,61.83l7.76 -10.71c-16.77,-12.14 -27.29,-30.64 -27.29,-51.12l-13.23 0zm85.93 -78.77c-46.79,0 -85.93,34.76 -85.93,78.77l13.23 0c0,-35.56 32.02,-65.54 72.7,-65.54l0 -13.23zm44.97 0l-44.97 0 0 13.23 44.97 0 0 -13.23zm-20.54 -34.17c0,16.67 5.68,32.1 15.27,44.77l10.55 -7.98c-7.98,-10.54 -12.59,-23.21 -12.59,-36.79l-13.23 0zm15.27 -44.78c-9.59,12.68 -15.27,28.11 -15.27,44.78l13.23 0c0,-13.59 4.62,-26.25 12.59,-36.8l-10.55 -7.98zm-132.81 10.61l138.08 0 0 -13.23 -138.08 0 0 13.23zm-85.94 -78.78c0,44.02 39.15,78.78 85.94,78.78l0 -13.23c-40.69,0 -72.71,-29.99 -72.71,-65.55l-13.23 0zm85.94 -78.77c-46.79,0 -85.94,34.76 -85.94,78.77l13.23 0c0,-35.56 32.02,-65.54 72.71,-65.54l0 -13.23zm422.47 0l-422.47 0 0 13.23 422.47 0 0 -13.23zm85.93 78.77c0,-44.01 -39.15,-78.77 -85.93,-78.77l0 13.23c40.68,0 72.7,29.98 72.7,65.54l13.23 0zm-15.27 44.78c9.58,-12.68 15.27,-28.11 15.27,-44.78l-13.23 0c0,13.59 -4.62,26.25 -12.59,36.8l10.55 7.98zm132.81 -10.61l-138.09 0 0 13.23 138.09 0 0 -13.23zm85.94 78.78c0,-44.02 -39.15,-78.78 -85.94,-78.78l0 13.23c40.69,0 72.71,29.99 72.71,65.55l13.23 0zm-85.94 78.77c46.79,0 85.94,-34.76 85.94,-78.77l-13.23 0c0,35.56 -32.02,65.54 -72.71,65.54l0 13.23zm-44.89 0l44.89 0 0 -13.23 -44.89 0 0 13.23zm44.89 -112.94c21.68,0 38.22,15.91 38.22,34.17l13.23 0c0,-26.72 -23.67,-47.4 -51.45,-47.4l0 13.23zm-422.47 0l422.47 0 0 -13.23 -422.47 0 0 13.23zm-38.22 34.17c0,-18.26 16.55,-34.17 38.22,-34.17l0 -13.23c-27.77,0 -51.45,20.68 -51.45,47.4l13.23 0zm38.22 34.17c-21.67,0 -38.22,-15.91 -38.22,-34.17l-13.23 0c0,26.72 23.68,47.4 51.45,47.4l0 -13.23zm312.11 0l-312.11 0 0 13.23 312.11 0 0 -13.23zm110.36 0l-110.36 0 0 13.23 110.36 0 0 -13.23zm38.22 -34.17c0,18.26 -16.54,34.17 -38.22,34.17l0 13.23c27.78,0 51.45,-20.68 51.45,-47.4l-13.23 0zm-664.16 -78.78c-21.68,0 -38.22,-15.91 -38.22,-34.17l-13.23 0c0,26.72 23.67,47.4 51.45,47.4l0 -13.23zm422.47 0l-422.47 0 0 13.23 422.47 0 0 -13.23zm38.22 -34.17c0,18.26 -16.55,34.17 -38.22,34.17l0 13.23c27.77,0 51.45,-20.68 51.45,-47.4l-13.23 0zm-38.22 -34.17c21.67,0 38.22,15.91 38.22,34.17l13.23 0c0,-26.71 -23.68,-47.4 -51.45,-47.4l0 13.23zm-422.47 0l422.47 0 0 -13.23 -422.47 0 0 13.23zm-38.22 34.17c0,-18.26 16.54,-34.17 38.22,-34.17l0 -13.23c-27.78,0 -51.45,20.69 -51.45,47.4l13.23 0zm131.33 191.72l422.47 0 0 -13.23 -422.47 0 0 13.23zm-38.22 34.17c0,-18.26 16.55,-34.17 38.22,-34.17l0 -13.23c-27.77,0 -51.45,20.69 -51.45,47.4l13.23 0zm38.22 34.17c-21.67,0 -38.22,-15.91 -38.22,-34.17l-13.23 0c0,26.72 23.68,47.4 51.45,47.4l0 -13.23zm209.86 0l-209.86 0 0 13.23 209.86 0 0 -13.23zm207.44 -78.43c-82.59,0 -157.57,30.62 -211.9,80.16l8.92 9.78c51.87,-47.31 123.67,-76.71 202.98,-76.71l0 -13.23zm25.24 0.98c-8.31,-0.64 -16.73,-0.98 -25.24,-0.98l0 13.23c8.16,0 16.23,0.33 24.23,0.94l1.01 -13.19zm-20.07 9.11c6.01,0 11.76,1.27 16.9,3.54l5.33 -12.11c-6.79,-2.99 -14.35,-4.66 -22.23,-4.66l0 13.23zm-422.47 112.95l180.4 0 0 -13.23 -180.4 0 0 13.23zm-38.22 34.17c0,-18.26 16.55,-34.17 38.22,-34.17l0 -13.23c-27.77,0 -51.45,20.68 -51.45,47.4l13.23 0zm38.22 34.17c-21.67,0 -38.22,-15.91 -38.22,-34.17l-13.23 0c0,26.72 23.68,47.4 51.45,47.4l0 -13.23zm136.07 0l-136.07 0 0 13.23 136.07 0 0 -13.23zm39.17 -79.1c-20.05,24.99 -35.59,53.22 -45.46,83.67l12.59 4.08c9.35,-28.85 24.09,-55.67 43.19,-79.47l-10.32 -8.28zm-175.24 123.7l128.16 0 0 -13.23 -128.16 0 0 13.23zm-38.22 34.17c0,-18.26 16.55,-34.17 38.22,-34.17l0 -13.23c-27.77,0 -51.45,20.68 -51.45,47.4l13.23 0zm38.22 34.17c-21.67,0 -38.22,-15.91 -38.22,-34.17l-13.23 0c0,26.72 23.68,47.4 51.45,47.4l0 -13.23zm127.09 0l-127.09 0 0 13.23 127.09 0 0 -13.23zm-9.55 -31.03c0,13.13 1.05,26.04 3.02,38.67l13.07 -2.04c-1.87,-11.98 -2.86,-24.2 -2.86,-36.63l-13.23 0zm4.11 -45.12c-2.69,14.68 -4.11,29.75 -4.11,45.12l13.23 0c0,-14.55 1.35,-28.82 3.89,-42.73l-13.01 -2.39zm-121.65 189.1c-21.67,0 -38.22,-15.91 -38.22,-34.17l-13.23 0c0,26.71 23.68,47.4 51.45,47.4l0 -13.23zm175.51 0l-175.51 0 0 13.23 175.51 0 0 -13.23zm-47.72 -73.09c8.94,30.31 23.44,58.52 42.44,83.69l10.56 -7.97c-18.08,-23.95 -31.85,-50.75 -40.31,-79.46l-12.69 3.74zm-127.79 4.75l134.14 0 0 -13.23 -134.14 0 0 13.23zm-38.22 34.17c0,-18.27 16.55,-34.17 38.22,-34.17l0 -13.23c-27.77,0 -51.45,20.68 -51.45,47.4l13.23 0zm455.52 118.88c-139.57,0 -252.04,-103.17 -252.04,-228.69l-13.23 0c0,133.97 119.6,241.92 265.27,241.92l0 -13.23zm252.04 -228.69c0,125.52 -112.47,228.69 -252.04,228.69l0 13.23c145.67,0 265.27,-107.95 265.27,-241.92l-13.23 0zm-252.04 -228.69c139.57,0 252.04,103.17 252.04,228.69l13.23 0c0,-133.97 -119.6,-241.92 -265.27,-241.92l0 13.23zm-252.04 228.69c0,-125.52 112.47,-228.69 252.04,-228.69l0 -13.23c-145.67,0 -265.27,107.95 -265.27,241.92l13.23 0zm251.96 -25.67c-22.12,0 -37.29,-13.93 -37.29,-27.95l-13.23 0c0,24.1 24.22,41.18 50.52,41.18l0 -13.23zm90.43 77.5c0,-43.73 -41.65,-77.5 -90.43,-77.5l0 13.23c43.64,0 77.2,29.83 77.2,64.27l13.23 0zm-69.13 75.3c38.84,-8.05 69.13,-38.12 69.13,-75.3l-13.23 0c0,29.35 -24.21,55.22 -58.59,62.35l2.69 12.95zm5.27 1.37l0 -7.84 -13.23 0 0 7.84 13.23 0zm-26.57 24.77c14.07,0 26.57,-10.52 26.57,-24.77l-13.23 0c0,5.8 -5.37,11.54 -13.34,11.54l0 13.23zm-26.57 -24.77c0,14.25 12.5,24.77 26.57,24.77l0 -13.23c-7.97,0 -13.34,-5.74 -13.34,-11.54l-13.23 0zm0 -7.84l0 7.84 13.23 0 0 -7.84 -13.23 0zm-63.86 -68.83c0,37.18 30.29,67.25 69.13,75.3l2.69 -12.95c-34.38,-7.13 -58.59,-33 -58.59,-62.35l-13.23 0zm26.57 -24.77c-14.07,0 -26.57,10.51 -26.57,24.77l13.23 0c0,-5.8 5.37,-11.54 13.34,-11.54l0 -13.23zm26.57 24.77c0,-14.26 -12.5,-24.77 -26.57,-24.77l0 13.23c7.97,0 13.34,5.74 13.34,11.54l13.23 0zm37.29 27.95c-22.12,0 -37.29,-13.93 -37.29,-27.95l-13.23 0c0,24.1 24.22,41.18 50.52,41.18l0 -13.23zm37.29 -27.95c0,14.02 -15.18,27.95 -37.29,27.95l0 13.23c26.3,0 50.51,-17.08 50.51,-41.18l-13.22 0zm-37.29 -27.96c22.11,0 37.29,13.93 37.29,27.96l13.22 0c0,-24.11 -24.21,-41.19 -50.51,-41.19l0 13.23zm-90.43 -77.49c0,43.73 41.64,77.49 90.43,77.49l0 -13.23c-43.65,0 -77.2,-29.83 -77.2,-64.26l-13.23 0zm69.13 -75.3c-38.84,8.05 -69.13,38.12 -69.13,75.3l13.23 0c0,-29.35 24.21,-55.22 58.59,-62.35l-2.69 -12.95zm-5.27 -2.97l0 9.44 13.23 0 0 -9.44 -13.23 0zm26.57 -24.77c-14.07,0 -26.57,10.52 -26.57,24.77l13.23 0c0,-5.8 5.37,-11.54 13.34,-11.54l0 -13.23zm26.57 24.77c0,-14.25 -12.5,-24.77 -26.57,-24.77l0 13.23c7.97,0 13.34,5.74 13.34,11.54l13.23 0zm0 9.44l0 -9.44 -13.23 0 0 9.44 13.23 0zm63.86 68.83c0,-37.18 -30.29,-67.25 -69.13,-75.3l-2.69 12.95c34.38,7.13 58.59,33 58.59,62.35l13.23 0zm-26.57 24.77c14.07,0 26.57,-10.51 26.57,-24.77l-13.23 0c0,5.8 -5.37,11.54 -13.34,11.54l0 13.23zm-26.57 -24.77c0,14.26 12.5,24.77 26.57,24.77l0 -13.23c-7.97,0 -13.35,-5.74 -13.35,-11.54l-13.22 0zm-37.29 -27.95c22.11,0 37.29,13.93 37.29,27.95l13.22 0c0,-24.1 -24.21,-41.18 -50.51,-41.18l0 13.23zm-37.29 27.95c0,-14.02 15.17,-27.95 37.29,-27.95l0 -13.23c-26.3,0 -50.52,17.08 -50.52,41.18l13.23 0z"/>
  <path class="fil1" d="M1689.86 238.83l-82.55 251.88 -81.84 -251.88 -105.13 0 136.17 357.01c-15.52,30.34 -35.28,43.04 -67.73,43.04 -16.23,0 -28.93,-1.41 -40.22,-2.82l0 69.15c14.82,0.7 23.99,2.11 44.45,2.11 79.02,0 124.89,-26.81 155.22,-107.95l134.06 -360.54 -92.43 0zm468.49 176.39c0,-109.36 -66.32,-184.15 -177.09,-184.15 -110.78,0 -177.81,74.79 -177.81,184.15 0,109.36 67.03,183.45 177.81,183.45 110.77,0 177.09,-74.09 177.09,-183.45zm-100.89 0c0,76.2 -23.29,120.65 -76.2,120.65 -52.92,0 -76.2,-44.45 -76.2,-121.36 0,-75.49 23.28,-119.94 76.2,-119.94 52.91,0 76.2,44.45 76.2,120.65zm517.17 0c0,-130.53 -59.27,-182.03 -138.29,-182.03 -51.51,0 -79.73,19.05 -113.59,50.8l-4.24 -45.16 -91.02 0 0 466.38 100.9 0 0 -151.7c28.93,26.81 57.86,43.04 104.42,43.04 78.32,0 141.82,-50.1 141.82,-181.33zm-104.42 0c0,76.2 -27.52,105.83 -71.97,105.83 -25.4,0 -47.98,-9.87 -69.85,-28.22l0 -155.22c22.58,-17.64 45.16,-28.22 70.56,-28.22 43.03,0 71.26,28.92 71.26,105.83zm475.54 -67.73c0,-76.2 -37.39,-114.3 -138.99,-114.3 -60.68,0 -113.6,11.99 -164.4,38.8l26.81 59.97c35.99,-17.64 74.79,-27.51 115.01,-27.51 45.16,0 64.21,15.52 64.21,55.03l0 12.7c-150.29,5.65 -225.78,43.04 -225.78,123.47 0,73.38 51.5,100.9 108.65,100.9 51.51,0 82.55,-15.52 122.77,-50.1l4.23 45.16 87.49 0 0 -244.12zm-97.36 155.92c-24.7,16.94 -46.57,28.23 -76.2,28.23 -35.28,0 -54.33,-14.82 -54.33,-45.86 0,-35.28 27.52,-57.15 130.53,-64.21l0 81.84zm512.23 -147.46c0,-75.49 -36.69,-122.76 -110.06,-122.76 -52.92,0 -83.97,17.63 -124.89,52.21l-4.94 -46.57 -91.02 0 0 352.78 100.9 0 0 -254.71c23.99,-18.34 46.57,-27.51 71.26,-27.51 38.81,0 57.86,21.16 57.86,68.44l0 213.78 100.89 0 0 -235.66zm385.24 67.74c0,-107.95 -56.45,-172.16 -141.11,-172.16 -42.34,0 -74.09,17.64 -107.25,47.27l0 -194.03 -43.74 0 0 486.84 36.69 0 4.23 -37.39c27.52,26.1 61.38,41.62 100.89,41.62 83.26,0 150.29,-60.67 150.29,-172.15zm-44.45 0.7c0,88.9 -42.34,134.76 -103.01,134.76 -41.63,0 -71.26,-16.93 -100.9,-47.97l0 -173.57c31.05,-29.64 60.68,-49.39 102.31,-49.39 57.85,0 101.6,46.57 101.6,136.17zm398.64 -167.92l-43.74 0 0 256.12c-35.28,31.04 -64.21,47.98 -103.72,47.98 -54.33,0 -80.44,-30.34 -80.44,-94.55l0 -209.55 -43.74 0 0 218.02c0,73.38 34.57,122.06 113.59,122.06 46.57,0 83.26,-18.35 116.42,-49.39l4.94 44.45 36.69 0 0 -335.14zm378.18 -151.7l-43.74 0 0 186.98c-26.81,-24.7 -59.97,-39.51 -98.07,-39.51 -83.26,0 -150.29,60.67 -150.29,172.15 0,107.95 56.45,172.16 141.11,172.16 43.75,0 75.5,-18.35 109.37,-48.68l4.93 43.74 36.69 0 0 -486.84zm-43.74 406.41c-31.05,28.92 -60.68,48.68 -102.31,48.68 -57.85,0 -101.6,-46.57 -101.6,-136.17 0,-88.9 42.34,-134.77 103.01,-134.77 41.63,0 71.26,16.94 100.9,48.69l0 173.57zm421.92 -254.71l-36.69 0 -4.23 37.39c-27.52,-26.1 -61.38,-41.62 -100.89,-41.62 -83.26,0 -150.29,60.67 -150.29,165.1 0,101.6 56.45,165.1 141.11,165.1 42.34,0 74.09,-17.64 107.25,-47.27l0 55.73c0,60.68 -39.51,82.55 -105.84,82.55 -42.33,0 -78.31,-9.87 -111.47,-23.28l-14.12 33.87c34.58,13.4 74.79,23.99 127.01,23.99 88.19,0 148.16,-35.99 148.16,-119.24l0 -332.32zm-43.74 240.59c-31.05,28.93 -60.68,48.69 -102.31,48.69 -57.85,0 -101.6,-46.57 -101.6,-129.12 0,-81.84 42.34,-127.71 103.01,-127.71 41.63,0 71.26,16.94 100.9,47.98l0 160.16zm419.81 -71.96c0,-107.25 -55.04,-175.69 -142.53,-175.69 -86.07,0 -150.28,74.79 -150.28,174.98 0,101.6 66.32,173.57 158.75,173.57 51.51,0 88.9,-14.82 130.53,-46.57l-20.46 -28.92c-34.57,26.81 -66.33,38.8 -107.95,38.8 -68.44,0 -112.89,-50.8 -117.13,-124.88l248.36 0c0.71,-4.24 0.71,-9.18 0.71,-11.29zm-249.07 -21.87c6.35,-68.44 45.16,-119.95 106.54,-119.95 65.62,0 94.55,55.74 100.19,119.95l-206.73 0zm496.71 148.87c-15.52,5.64 -29.63,8.47 -50.8,8.47 -37.39,0 -50.8,-16.94 -50.8,-50.1l0 -218.72 100.9 0 0 -35.28 -100.9 0 0 -112.19 -32.45 0 -9.88 112.19 -60.68 0 0 35.28 60.68 0 0 220.84c0,58.56 26.81,84.66 87.49,84.66 21.17,0 37.39,-2.82 56.44,-9.17l0 -35.98z"/>
 </g>
</svg>
